<svg id="Capa_1" enable-background="new 0 0 512 512" height="512" viewBox="0 0 512 512" width="512" xmlns="http://www.w3.org/2000/svg"><g><g><circle cx="256.004" cy="256" fill="#ccf5fc" r="246"/><g><ellipse cx="257.596" cy="251.862" fill="#faf7f5" rx="100.177" ry="100.177" transform="matrix(.707 -.707 .707 .707 -102.645 255.917)"/></g><g><path d="m298.938 181.638h138.392c-26.61-64.756-85.717-110.412-155.089-119.807l-69.17 119.807z" fill="#c193dc"/><g><path d="m213.07 181.638 69.17-119.807c-69.378-9.476-138.527 18.892-181.258 74.368l69.16 119.801z" fill="#d1aee5"/></g><path d="m170.142 256-69.17-119.802c-42.825 55.372-52.852 129.393-26.294 194.159h138.392z" fill="#c193dc"/><path d="m298.938 330.362-69.17 119.807c69.377 9.476 138.526-18.892 181.258-74.368l-69.16-119.801z" fill="#c193dc"/><g><path d="m341.866 256 69.17 119.802c42.825-55.372 52.852-129.393 26.294-194.159h-138.392z" fill="#d1aee5"/></g><g><g><path d="m213.07 330.362h-138.392c26.61 64.756 85.717 110.412 155.089 119.807l69.17-119.807z" fill="#d1aee5"/></g></g></g></g><g><path d="m502.004 266c-4.179 0-7.998-2.708-9.407-6.632-1.408-3.919-.168-8.457 3.063-11.096 3.286-2.684 8.015-2.986 11.621-.758 3.567 2.204 5.404 6.58 4.478 10.668-1.02 4.504-5.125 7.818-9.755 7.818z"/><path d="m446.657 178.032c-.025-.065-.051-.131-.078-.196-27.867-67.816-90.31-116.06-162.965-125.912-.007-.001-.014-.002-.021-.003-72.598-9.915-145.459 19.905-190.274 77.839-.088.104-.174.211-.258.319-44.831 57.967-55.441 136.074-27.71 203.889.025.065.051.131.078.196 27.867 67.816 90.31 116.06 162.965 125.912.007.001.014.002.021.003 9.229 1.26 18.461 1.879 27.641 1.878 63.025 0 123.517-29.15 162.635-79.718.088-.104.173-.21.257-.318 44.83-57.967 55.44-136.074 27.709-203.889zm-153.495 142.33h-74.315l-37.159-64.362 37.158-64.362h74.315l37.159 64.362zm118.745 36.949-95.649-165.667h114.235c20.281 55.033 13.208 116.72-18.586 165.667zm9.827-185.673h-191.341l57.089-98.885c57.794 9.962 107.711 46.912 134.252 98.885zm-155.934-101.331-95.658 165.692-57.087-98.89c37.473-45.183 94.438-69.92 152.745-66.802zm-165.699 84.382 95.649 165.667h-114.235c-20.282-55.033-13.208-116.72 18.586-165.667zm-9.828 185.673h191.342l-57.089 98.885c-57.795-9.962-107.712-46.912-134.253-98.885zm155.935 101.331 95.658-165.692 57.087 98.89c-37.474 45.183-94.427 69.932-152.745 66.802z"/><path d="m256.004 512c-68.38 0-132.667-26.628-181.02-74.981-48.351-48.352-74.98-112.639-74.98-181.019s26.629-132.667 74.98-181.019c48.353-48.353 112.64-74.981 181.02-74.981 123.111 0 228.925 87.686 251.6 208.498 1.02 5.428-2.556 10.654-7.983 11.673-5.422 1.022-10.654-2.555-11.673-7.983-20.902-111.362-118.448-192.188-231.944-192.188-130.131 0-236 105.869-236 236s105.869 236 236 236c113.221 0 210.724-80.595 231.839-191.637l.125-.661c1.016-5.428 6.237-9.01 11.67-7.989 5.428 1.016 9.005 6.241 7.988 11.669l-.13.689c-22.913 120.494-128.679 207.929-251.492 207.929z"/></g></g></svg>